<svg width="22" height="22" viewBox="0 0 22 22" fill="none" xmlns="http://www.w3.org/2000/svg">
<path d="M11 0C8.82441 0 6.69767 0.645139 4.88873 1.85383C3.07979 3.06253 1.66989 4.78049 0.83733 6.79048C0.00476615 8.80047 -0.213071 11.0122 0.211367 13.146C0.635804 15.2798 1.68345 17.2398 3.22183 18.7782C4.76021 20.3165 6.72022 21.3642 8.85401 21.7886C10.9878 22.2131 13.1995 21.9952 15.2095 21.1627C17.2195 20.3301 18.9375 18.9202 20.1462 17.1113C21.3549 15.3023 22 13.1756 22 11C21.9968 8.08359 20.8369 5.28753 18.7747 3.22531C16.7125 1.16309 13.9164 0.00315432 11 0V0ZM11 20.1667C9.18701 20.1667 7.41473 19.629 5.90728 18.6218C4.39983 17.6146 3.22491 16.1829 2.53111 14.5079C1.83731 12.8329 1.65578 10.9898 2.00947 9.21167C2.36317 7.43351 3.23621 5.80017 4.51819 4.51819C5.80017 3.23621 7.43352 2.36317 9.21168 2.00947C10.9898 1.65577 12.8329 1.8373 14.5079 2.5311C16.1829 3.22491 17.6146 4.39982 18.6218 5.90727C19.6291 7.41472 20.1667 9.187 20.1667 11C20.164 13.4303 19.1974 15.7604 17.4789 17.4789C15.7604 19.1974 13.4303 20.164 11 20.1667Z" fill="#FFCC00"/>
<path d="M11.6548 4.64269C11.1265 4.54639 10.5835 4.56743 10.0642 4.70432C9.54492 4.8412 9.06205 5.09059 8.64977 5.43483C8.23749 5.77907 7.90588 6.20975 7.6784 6.69639C7.45092 7.18303 7.33313 7.71374 7.33337 8.25096C7.33337 8.49403 7.4299 8.72715 7.60171 8.89903C7.77352 9.0709 8.00654 9.16746 8.24952 9.16746C8.49249 9.16746 8.72551 9.0709 8.89732 8.89903C9.06913 8.72715 9.16566 8.49403 9.16566 8.25096C9.16543 7.9813 9.22467 7.71492 9.33917 7.4708C9.45366 7.22667 9.62059 7.01083 9.82804 6.83866C10.0355 6.66648 10.2784 6.54222 10.5393 6.47473C10.8003 6.40724 11.073 6.39818 11.3378 6.4482C11.7004 6.51879 12.0336 6.69608 12.2947 6.95734C12.5559 7.2186 12.7331 7.55193 12.8037 7.9146C12.882 8.32848 12.8155 8.75672 12.6152 9.12728C12.415 9.49784 12.0933 9.7881 11.7043 9.94924C11.2163 10.1576 10.8014 10.5065 10.5125 10.9517C10.2235 11.3968 10.0736 11.9179 10.0818 12.4485V12.8335C10.0818 13.0765 10.1783 13.3097 10.3501 13.4815C10.5219 13.6534 10.755 13.75 10.9979 13.75C11.2409 13.75 11.4739 13.6534 11.6457 13.4815C11.8176 13.3097 11.9141 13.0765 11.9141 12.8335V12.4485C11.9072 12.2814 11.9493 12.1159 12.035 11.9724C12.1208 11.8288 12.2465 11.7133 12.3969 11.6402C13.1296 11.3385 13.7448 10.8074 14.1503 10.1265C14.5558 9.44558 14.7298 8.65152 14.6463 7.86333C14.5627 7.07514 14.226 6.33528 13.6867 5.75464C13.1473 5.174 12.4344 4.78386 11.6548 4.64269Z" fill="#FFCC00"/>
<path d="M11 17.4166C11.5063 17.4166 11.9167 17.0062 11.9167 16.5C11.9167 15.9937 11.5063 15.5833 11 15.5833C10.4938 15.5833 10.0834 15.9937 10.0834 16.5C10.0834 17.0062 10.4938 17.4166 11 17.4166Z" fill="#FFCC00"/>
</svg>
