<svg id="圖層_1" data-name="圖層 1" xmlns="http://www.w3.org/2000/svg" viewBox="0 0 50 50"><defs></defs><path class="cls-1" d="M24.46,14a11,11,0,1,0,7.77,3.23A11,11,0,0,0,24.46,14Zm0,20.17a9.17,9.17,0,0,1-9-11,9.18,9.18,0,0,1,7.2-7.2,9.15,9.15,0,0,1,9.41,3.9,9.17,9.17,0,0,1-7.62,14.26Z"/><path class="cls-1" d="M25.11,18.64a3.87,3.87,0,0,0-1.59.06,3.73,3.73,0,0,0-1.41.73,3.54,3.54,0,0,0-1,1.27,3.59,3.59,0,0,0-.35,1.55.93.93,0,0,0,.27.65.91.91,0,0,0,1.29,0,.89.89,0,0,0,.27-.65,1.86,1.86,0,0,1,.67-1.41,1.86,1.86,0,0,1,.71-.37,1.91,1.91,0,0,1,.79,0,1.84,1.84,0,0,1,.37,3.5A2.7,2.7,0,0,0,24,25a2.67,2.67,0,0,0-.43,1.5v.38a.92.92,0,1,0,1.83,0v-.38a.9.9,0,0,1,.12-.48.88.88,0,0,1,.36-.33,3.64,3.64,0,0,0,2.25-3.78,3.69,3.69,0,0,0-1-2.11A3.65,3.65,0,0,0,25.11,18.64Z"/><path class="cls-1" d="M24.46,31.42a.92.92,0,1,0-.92-.92A.92.92,0,0,0,24.46,31.42Z"/></svg>