<svg id="圖層_1" data-name="圖層 1" xmlns="http://www.w3.org/2000/svg" viewBox="0 0 50 50"><defs></defs><path class="cls-1" d="M35.31,16.58A1.72,1.72,0,0,1,37,18.3V31.7a1.72,1.72,0,0,1-1.72,1.72H14.69A1.72,1.72,0,0,1,13,31.7V18.3a1.72,1.72,0,0,1,1.72-1.72Zm0-1.15H14.69a2.88,2.88,0,0,0-2.87,2.87V31.7a2.88,2.88,0,0,0,2.87,2.87H35.31a2.88,2.88,0,0,0,2.87-2.87V18.3A2.88,2.88,0,0,0,35.31,15.43Z"/><path class="cls-1" d="M25,28a.55.55,0,0,1-.38-.15l-10.12-9a.57.57,0,0,1,.76-.86L25,26.64,34.74,18a.57.57,0,0,1,.76.86l-10.12,9A.57.57,0,0,1,25,28Z"/></svg>