<svg width="20" height="24" viewBox="0 0 20 24" fill="none" xmlns="http://www.w3.org/2000/svg">
<path d="M18.6607 23.75H0.565476C0.252922 23.75 0 23.4971 0 23.1845V0.565476C0 0.253333 0.252922 0 0.565476 0H18.6607C18.9733 0 19.2262 0.253333 19.2262 0.565476V23.1845C19.2262 23.4971 18.9733 23.75 18.6607 23.75ZM1.13095 22.619H18.0952V1.13095H1.13095V22.619Z" fill="#FFCC00"/>
<path d="M15.4389 4.56168H3.78679C3.47424 4.56168 3.22131 4.30834 3.22131 3.9962C3.22131 3.68406 3.47424 3.43073 3.78679 3.43073H15.4389C15.7514 3.43073 16.0044 3.68406 16.0044 3.9962C16.0044 4.30834 15.7514 4.56168 15.4389 4.56168Z" fill="#FFCC00"/>
<path d="M15.439 7.02921H3.78687C3.55944 7.02921 3.37561 6.84496 3.37561 6.61795C3.37561 6.39094 3.55944 6.2067 3.78687 6.2067H15.439C15.6664 6.2067 15.8502 6.39094 15.8502 6.61795C15.8502 6.84496 15.6664 7.02921 15.439 7.02921Z" fill="#FFCC00"/>
<path d="M15.439 9.65054H3.78687C3.55944 9.65054 3.37561 9.4663 3.37561 9.23929C3.37561 9.01228 3.55944 8.82803 3.78687 8.82803H15.439C15.6664 8.82803 15.8502 9.01228 15.8502 9.23929C15.8502 9.4663 15.6664 9.65054 15.439 9.65054Z" fill="#FFCC00"/>
<path d="M15.439 12.2719H3.78687C3.55944 12.2719 3.37561 12.088 3.37561 11.8606C3.37561 11.6336 3.55944 11.4493 3.78687 11.4493H15.439C15.6664 11.4493 15.8502 11.6336 15.8502 11.8606C15.8502 12.088 15.6664 12.2719 15.439 12.2719Z" fill="#FFCC00"/>
<path d="M15.439 14.8936H3.78687C3.55944 14.8936 3.37561 14.7098 3.37561 14.4823C3.37561 14.2549 3.55944 14.0711 3.78687 14.0711H15.439C15.6664 14.0711 15.8502 14.2549 15.8502 14.4823C15.8502 14.7098 15.6664 14.8936 15.439 14.8936Z" fill="#FFCC00"/>
<path d="M15.439 17.515H3.78687C3.55944 17.515 3.37561 17.3311 3.37561 17.1037C3.37561 16.8763 3.55944 16.6924 3.78687 16.6924H15.439C15.6664 16.6924 15.8502 16.8763 15.8502 17.1037C15.8502 17.3311 15.6664 17.515 15.439 17.515Z" fill="#FFCC00"/>
<path d="M15.439 20.1363H3.78687C3.55944 20.1363 3.37561 19.9525 3.37561 19.725C3.37561 19.4976 3.55944 19.3138 3.78687 19.3138H15.439C15.6664 19.3138 15.8502 19.4976 15.8502 19.725C15.8502 19.9525 15.6664 20.1363 15.439 20.1363Z" fill="#FFCC00"/>
</svg>
