<svg id="圖層_1" data-name="圖層 1" xmlns="http://www.w3.org/2000/svg" viewBox="0 0 50 50"><defs></defs><path class="cls-1" d="M34.05,37.67H16a.56.56,0,0,1-.56-.56V14.49a.57.57,0,0,1,.56-.57h18.1a.57.57,0,0,1,.56.57V37.11A.56.56,0,0,1,34.05,37.67ZM16.52,36.54h17V15.05h-17Z"/><path class="cls-1" d="M30.83,18.49H19.17a.57.57,0,0,1,0-1.14H30.83a.57.57,0,0,1,0,1.14Z"/><path class="cls-1" d="M30.83,21H19.17a.41.41,0,0,1,0-.82H30.83a.41.41,0,0,1,0,.82Z"/><path class="cls-1" d="M30.83,23.57H19.17a.41.41,0,0,1-.41-.41.42.42,0,0,1,.41-.41H30.83a.42.42,0,0,1,.41.41A.41.41,0,0,1,30.83,23.57Z"/><path class="cls-1" d="M30.83,26.2H19.17a.42.42,0,0,1,0-.83H30.83a.42.42,0,0,1,0,.83Z"/><path class="cls-1" d="M30.83,28.82H19.17a.42.42,0,0,1,0-.83H30.83a.42.42,0,0,1,0,.83Z"/><path class="cls-1" d="M30.83,31.44H19.17a.42.42,0,0,1-.41-.41.41.41,0,0,1,.41-.41H30.83a.41.41,0,0,1,.41.41A.42.42,0,0,1,30.83,31.44Z"/><path class="cls-1" d="M30.83,34.06H19.17a.41.41,0,1,1,0-.82H30.83a.41.41,0,1,1,0,.82Z"/></svg>