<svg id="圖層_1" data-name="圖層 1" xmlns="http://www.w3.org/2000/svg" viewBox="0 0 50 50"><defs><style>.cls-1{fill:#fc0;fill-rule:evenodd;}</style></defs><path class="cls-1" d="M15.88,31.24a.45.45,0,0,1,0-.69L19.18,28a.5.5,0,0,1,.65,0l1.49,1.4A1.5,1.5,0,0,0,23,29.7a12.85,12.85,0,0,0,3-2.09,13.37,13.37,0,0,0,2.25-2.95A1.34,1.34,0,0,0,28.09,23l-1.47-1.39a.45.45,0,0,1,0-.63l2.67-3.09a.51.51,0,0,1,.73,0l1.81,1.72A3,3,0,0,1,32.53,23a19.77,19.77,0,0,1-4.35,6.44,22.16,22.16,0,0,1-6.9,4.21,3.41,3.41,0,0,1-3.62-.69Zm-.58-1.41a1.34,1.34,0,0,0-.11,2.07L17,33.58a4.41,4.41,0,0,0,4.71.89,23.31,23.31,0,0,0,7.19-4.4,20.69,20.69,0,0,0,4.56-6.74,3.87,3.87,0,0,0-1-4.41l-1.81-1.71a1.52,1.52,0,0,0-2.18.1l-2.66,3.1a1.33,1.33,0,0,0,.09,1.86l1.47,1.4a.42.42,0,0,1,.09.53A12.74,12.74,0,0,1,25.39,27a11.84,11.84,0,0,1-2.83,1.93A.49.49,0,0,1,22,28.8l-1.48-1.41a1.54,1.54,0,0,0-2-.09Z"/></svg>