<svg width="19" height="18" viewBox="0 0 19 18" fill="none" xmlns="http://www.w3.org/2000/svg">
<path fill-rule="evenodd" clip-rule="evenodd" d="M1.12156 14.44C0.917002 14.2458 0.933731 13.9265 1.15776 13.7527L4.4204 11.2197C4.61489 11.0687 4.8984 11.0821 5.07606 11.2507L6.55701 12.6559C7.00458 13.0806 7.70016 13.1923 8.26972 12.8974C9.51999 12.2504 10.4856 11.6067 11.3232 10.8075C12.1597 10.0093 12.8512 9.07254 13.5724 7.85884C13.895 7.31595 13.7834 6.64396 13.3283 6.21213L11.8573 4.81638C11.6796 4.64777 11.6654 4.37882 11.8246 4.19427L14.4941 1.0985C14.6773 0.885983 15.0139 0.870054 15.2185 1.06422L17.0292 2.78229C17.98 3.68445 18.291 5.02284 17.7709 6.16741C16.5205 8.91929 15.1756 10.9543 13.4241 12.6103C11.6717 14.2671 9.48742 15.568 6.52267 16.8181C5.30234 17.3326 3.8656 17.0436 2.90129 16.1286L1.12156 14.44ZM0.538204 13.0342C-0.133694 13.5559 -0.184076 14.5139 0.429808 15.0964L2.20954 16.785C3.43975 17.9523 5.3042 18.3476 6.91996 17.6663C9.95133 16.3882 12.2499 15.0309 14.1146 13.2679C15.9802 11.5041 17.3866 9.3578 18.6693 6.53491C19.3601 5.01448 18.9329 3.27588 17.721 2.12592L15.9103 0.407844C15.2964 -0.174659 14.2867 -0.126872 13.7369 0.510686L11.0674 3.60646C10.59 4.1601 10.6324 4.96693 11.1655 5.47276L12.6365 6.86851C12.7905 7.01463 12.8207 7.23379 12.7202 7.40291C12.0244 8.57397 11.3829 9.4341 10.6295 10.1529C9.87717 10.8708 8.99582 11.4642 7.80131 12.0825C7.62649 12.1729 7.4007 12.1437 7.24877 11.9995L5.76781 10.5943C5.23474 10.0885 4.3844 10.0482 3.80094 10.5012L0.538204 13.0342Z" fill="#FFCC00"/>
</svg>
