<svg id="圖層_1" data-name="圖層 1" xmlns="http://www.w3.org/2000/svg" viewBox="0 0 50 50"><defs><style>.cls-1{fill:#fc0;}</style></defs><path class="cls-1" d="M34.4,25.93v-1.6a2.19,2.19,0,0,0-2.18-2.19H14a2.19,2.19,0,0,0-2.18,2.19v8.19A2.19,2.19,0,0,0,14,34.71H32.22a2.19,2.19,0,0,0,2.18-2.19v-1.6l3.77,2.91V23Zm-.85,6.59a1.33,1.33,0,0,1-1.33,1.33H14a1.34,1.34,0,0,1-1.33-1.33V24.33A1.34,1.34,0,0,1,14,23H32.22a1.34,1.34,0,0,1,1.34,1.34v8.19Zm3.77-.42L34.4,29.84V27l2.92-2.25ZM18.16,21.25l10.22,0a4.08,4.08,0,1,0-2.79-.83H20.64a4.07,4.07,0,1,0-2.48.85Zm6.68-4.09a3.24,3.24,0,1,1,3.23,3.24A3.23,3.23,0,0,1,24.84,17.16Zm-6.68-3.23a3.24,3.24,0,1,1-3.23,3.23A3.23,3.23,0,0,1,18.16,13.93ZM21.82,25.2H14.5a.43.43,0,0,0,0,.85h7.32a.43.43,0,0,0,0-.85Z"/></svg>