<svg width="22" height="22" viewBox="0 0 22 22" fill="none" xmlns="http://www.w3.org/2000/svg">
<path d="M0.916595 1.32163e-05C0.39538 1.32163e-05 0 0.455498 0 0.957724V3.67422V5.32201V14.5903V17.0401V19.0325C0 20.566 1.08257 21.8659 2.50093 21.9871C2.5428 21.9972 2.58589 22.0014 2.62893 21.9995H18.8877C18.9084 21.9991 18.929 21.9973 18.9495 21.9942C18.9798 21.9951 19.0092 21.9995 19.0399 21.9995H19.2869C20.81 21.9995 22 20.643 22 19.0324V6.50884C21.9995 6.38731 21.9508 6.27094 21.8645 6.18534C21.7782 6.09974 21.6615 6.05191 21.5399 6.05236H17.2434V0.957704C17.2434 0.455479 16.848 0 16.3268 0L0.916595 1.32163e-05ZM0.916595 0.917447H16.3268C16.3133 0.917447 16.3268 0.908094 16.3268 0.957724V6.42472C16.3272 6.43788 16.3281 6.45102 16.3296 6.4641C16.3279 6.47897 16.327 6.49391 16.3268 6.50887V19.0325C16.3268 19.8199 16.6126 20.5451 17.0814 21.0822H2.71666C1.74056 21.0822 0.916595 20.2007 0.916595 19.0325V17.0589C0.916723 17.0526 0.916723 17.0464 0.916595 17.0401V14.5903V5.34083C0.916723 5.33456 0.916723 5.3283 0.916595 5.32203V3.67424V0.957737C0.916595 0.908159 0.929933 0.917467 0.916595 0.917467V0.917447ZM17.2434 6.96534H21.0834V19.0325C21.0834 20.2006 20.2631 21.0822 19.2869 21.0822H19.0399C18.0637 21.0822 17.2434 20.2006 17.2434 19.0325V6.96534Z" fill="#FFCC00"/>
<path d="M2.86909 16.8092C2.7475 16.8092 2.6309 16.8575 2.54492 16.9435C2.45895 17.0295 2.41064 17.1461 2.41064 17.2677C2.41064 17.3892 2.45895 17.5058 2.54492 17.5918C2.6309 17.6778 2.7475 17.7261 2.86909 17.7261H14.3488C14.4704 17.7261 14.587 17.6778 14.673 17.5918C14.759 17.5058 14.8073 17.3892 14.8073 17.2677C14.8073 17.1461 14.759 17.0295 14.673 16.9435C14.587 16.8575 14.4704 16.8092 14.3488 16.8092H2.86909Z" fill="#FFCC00"/>
<path d="M10.8099 12.5597C10.6883 12.5597 10.5717 12.608 10.4857 12.694C10.3997 12.7799 10.3514 12.8966 10.3514 13.0181C10.3514 13.1397 10.3997 13.2563 10.4857 13.3423C10.5717 13.4283 10.6883 13.4766 10.8099 13.4766H14.3489C14.4705 13.4766 14.5871 13.4283 14.6731 13.3423C14.759 13.2563 14.8073 13.1397 14.8073 13.0181C14.8073 12.8966 14.759 12.7799 14.6731 12.694C14.5871 12.608 14.4705 12.5597 14.3489 12.5597H10.8099Z" fill="#FFCC00"/>
<path d="M10.7659 8.31022C10.6444 8.3161 10.5301 8.37001 10.4483 8.46011C10.3665 8.5502 10.3238 8.66909 10.3296 8.79065C10.3355 8.91221 10.3893 9.02647 10.4794 9.10832C10.5695 9.19017 10.6883 9.2329 10.8099 9.22711H14.3489C14.4705 9.22711 14.5871 9.17881 14.6731 9.09283C14.759 9.00686 14.8073 8.89025 14.8073 8.76867C14.8073 8.64708 14.759 8.53047 14.6731 8.4445C14.5871 8.35852 14.4705 8.31022 14.3489 8.31022H10.8099C10.7952 8.30952 10.7806 8.30952 10.7659 8.31022Z" fill="#FFCC00"/>
<path d="M2.86909 4.05725C2.7475 4.05725 2.6309 4.10555 2.54492 4.19153C2.45895 4.2775 2.41064 4.39411 2.41064 4.5157C2.41064 4.63728 2.45895 4.75389 2.54492 4.83987C2.6309 4.92584 2.7475 4.97414 2.86909 4.97414H14.3488C14.4704 4.97414 14.587 4.92584 14.673 4.83987C14.759 4.75389 14.8073 4.63728 14.8073 4.5157C14.8073 4.39411 14.759 4.2775 14.673 4.19153C14.587 4.10555 14.4704 4.05725 14.3488 4.05725H2.86909Z" fill="#FFCC00"/>
<path d="M3.48818 8.08008C2.98828 8.08008 2.57129 8.49707 2.57129 8.99697V12.6645C2.57129 13.1644 2.98827 13.5814 3.48818 13.5814H7.15575C7.65566 13.5814 8.07264 13.1644 8.07264 12.6645V8.99697C8.07264 8.49707 7.65565 8.08008 7.15575 8.08008H3.48818ZM3.48818 8.99697H7.15575V12.6645H3.48818V8.99697Z" fill="#FFCC00"/>
</svg>
