<svg id="圖層_1" data-name="圖層 1" xmlns="http://www.w3.org/2000/svg" viewBox="0 0 50 50"><defs></defs><path class="cls-1" d="M14.92,13.75a1,1,0,0,0-.92,1V32.78a2.89,2.89,0,0,0,2.5,3H33.29a2.85,2.85,0,0,0,2.71-3V20.26a.47.47,0,0,0-.14-.33.46.46,0,0,0-.32-.13h-4.3V14.71a.94.94,0,0,0-.91-1Zm0,.92H30.33s0,0,0,0V32.78a3.11,3.11,0,0,0,.75,2H16.72a1.92,1.92,0,0,1-1.8-2V14.71c0-.05,0,0,0,0Zm16.32,6h3.84V32.78a1.92,1.92,0,0,1-1.79,2H33a1.92,1.92,0,0,1-1.8-2Z"/><path class="cls-1" d="M16.87,30.56a.51.51,0,0,0-.33.13.49.49,0,0,0-.13.33.48.48,0,0,0,.13.32.46.46,0,0,0,.33.13H28.35a.42.42,0,0,0,.32-.13.45.45,0,0,0,.14-.32.45.45,0,0,0-.14-.33.46.46,0,0,0-.32-.13Z"/><path class="cls-1" d="M24.81,26.31a.46.46,0,0,0-.32.13.45.45,0,0,0-.14.33.45.45,0,0,0,.14.32.42.42,0,0,0,.32.13h3.54a.42.42,0,0,0,.32-.13.45.45,0,0,0,.14-.32.45.45,0,0,0-.14-.33.46.46,0,0,0-.32-.13Z"/><path class="cls-1" d="M24.77,22.06a.42.42,0,0,0-.32.15.45.45,0,0,0-.12.33.5.5,0,0,0,.15.32.5.5,0,0,0,.33.12h3.54a.48.48,0,0,0,.46-.46.47.47,0,0,0-.14-.33.46.46,0,0,0-.32-.13H24.77Z"/><path class="cls-1" d="M16.87,17.81a.46.46,0,0,0-.33.13.48.48,0,0,0-.13.32.49.49,0,0,0,.13.33.51.51,0,0,0,.33.13H28.35a.46.46,0,0,0,.32-.13.45.45,0,0,0,.14-.33.45.45,0,0,0-.14-.32.42.42,0,0,0-.32-.13Z"/><path class="cls-1" d="M17.49,21.83a.93.93,0,0,0-.92.92v3.66a.93.93,0,0,0,.92.92h3.67a.92.92,0,0,0,.91-.92V22.75a.92.92,0,0,0-.91-.92Zm0,.92h3.67v3.66H17.49Z"/></svg>