<svg width="29" height="23" viewBox="0 0 29 23" fill="none" xmlns="http://www.w3.org/2000/svg">
<path d="M16.3581 7.16333V0.502533C16.3581 0.321279 16.2675 0.140026 16.0862 0.0493992C15.905 -0.0412274 15.7237 0.0040859 15.5425 0.0947125L6.75168 6.57426H0.498446C0.226567 6.57426 0 6.80082 0 7.0727V15.8635C0 16.1354 0.226567 16.3619 0.498446 16.3619H6.75168L15.5875 22.8415C15.6781 22.8868 15.7688 22.9321 15.9047 22.9321C15.9953 22.9321 16.0407 22.9321 16.1313 22.8868C16.3125 22.7962 16.4032 22.6149 16.4032 22.4337V15.7729C18.5782 15.501 20.2548 13.6884 20.2548 11.4681C20.2548 9.24774 18.5329 7.43521 16.3578 7.16333H16.3581ZM15.3612 21.4368L7.20482 15.4554C7.11419 15.4101 7.02356 15.3648 6.88762 15.3648H0.996893V7.57089H6.88762C6.97825 7.57089 7.11419 7.52558 7.20482 7.48026L15.3612 1.49891V21.4368ZM16.3581 14.776V8.16022C17.9441 8.38679 19.2128 9.7915 19.2128 11.4681C19.2128 13.1447 17.9441 14.5494 16.3581 14.776Z" fill="#FFCC01"/>
<path d="M21.0707 7.34458C20.8441 7.48052 20.7988 7.79772 20.9347 8.02428C21.6144 9.02118 22.0223 10.1993 22.0223 11.4228C22.0223 12.6462 21.6598 13.8244 20.9347 14.8213C20.7988 15.0478 20.8441 15.365 21.0707 15.501C21.1613 15.5463 21.2519 15.5916 21.3426 15.5916C21.4785 15.5916 21.6598 15.501 21.7504 15.365C22.566 14.1869 22.9738 12.8275 22.9738 11.3775C22.9738 9.92744 22.566 8.56804 21.7504 7.3899C21.6144 7.25396 21.2972 7.20864 21.0707 7.34458Z" fill="#FFCC01"/>
<path d="M24.1521 5.71331C23.9708 5.48674 23.6989 5.44143 23.4724 5.57737C23.2458 5.75862 23.2005 6.0305 23.3364 6.25707C24.4239 7.79772 24.9677 9.56494 24.9677 11.4228C24.9677 13.2806 24.3786 15.0932 23.3364 16.6336C23.1552 16.8601 23.2458 17.1773 23.4724 17.3133C23.563 17.3586 23.6536 17.4039 23.7442 17.4039C23.8802 17.4039 24.0614 17.3133 24.1521 17.1773C25.3302 15.5007 25.9646 13.5069 25.9646 11.4228C26.0099 9.38368 25.3755 7.3899 24.1521 5.71331Z" fill="#FFCC01"/>
<path d="M26.5985 3.90077C26.4172 3.67421 26.1453 3.62889 25.9188 3.76483C25.6922 3.94609 25.6469 4.21797 25.7828 4.44453C27.2328 6.48363 28.0032 8.88524 28.0032 11.4228C28.0032 13.915 27.2328 16.3619 25.7828 18.401C25.6016 18.6276 25.6922 18.9448 25.9188 19.0807C26.0094 19.126 26.1 19.1714 26.1906 19.1714C26.3266 19.1714 26.5078 19.0807 26.5985 18.9448C28.1844 16.8151 29.0001 14.1869 29.0001 11.4678C29.0001 8.74878 28.1844 6.12087 26.5985 3.90077Z" fill="#FFCC01"/>
</svg>
