<svg width="22" height="22" viewBox="0 0 22 22" fill="none" xmlns="http://www.w3.org/2000/svg">
<path d="M19.6612 4.19849H12.5733L16.2714 1.26784C16.4017 1.15983 16.4897 0.997986 16.5164 0.817042C16.543 0.636098 16.5063 0.450471 16.414 0.299995C16.3217 0.149518 16.1813 0.0461826 16.0228 0.0121618C15.8643 -0.0218591 15.7004 0.0161459 15.5663 0.118021L10.601 4.04424L5.65306 0.118021C5.51893 0.0161459 5.35503 -0.0218591 5.19654 0.0121618C5.03805 0.0461826 4.8976 0.149518 4.80533 0.299995C4.71305 0.450471 4.6763 0.636098 4.70297 0.817042C4.72964 0.997986 4.8176 1.15983 4.94797 1.26784L8.64108 4.19849H1.54085C1.13219 4.19849 0.740269 4.38316 0.451304 4.71187C0.162339 5.04058 0 5.4864 0 5.95127V18.431C0 18.8959 0.162339 19.3417 0.451304 19.6705C0.740269 19.9992 1.13219 20.1838 1.54085 20.1838H2.71189V21.1654C2.71189 21.3513 2.77683 21.5297 2.89241 21.6611C3.008 21.7926 3.16477 21.8665 3.32823 21.8665C3.4917 21.8665 3.64846 21.7926 3.76405 21.6611C3.87964 21.5297 3.94457 21.3513 3.94457 21.1654V20.1838H17.504V21.1654C17.504 21.3513 17.569 21.5297 17.6846 21.6611C17.8001 21.7926 17.9569 21.8665 18.1204 21.8665C18.2838 21.8665 18.4406 21.7926 18.5562 21.6611C18.6718 21.5297 18.7367 21.3513 18.7367 21.1654V20.1838H19.6612C20.0699 20.1838 20.4618 19.9992 20.7508 19.6705C21.0397 19.3417 21.2021 18.8959 21.2021 18.431V5.95127C21.2021 5.4864 21.0397 5.04058 20.7508 4.71187C20.4618 4.38316 20.0699 4.19849 19.6612 4.19849ZM19.9694 18.431C19.9694 18.524 19.9369 18.6132 19.8791 18.6789C19.8213 18.7447 19.743 18.7816 19.6612 18.7816H1.54085C1.45912 18.7816 1.38073 18.7447 1.32294 18.6789C1.26515 18.6132 1.23268 18.524 1.23268 18.431V5.95127C1.23268 5.85829 1.26515 5.76913 1.32294 5.70339C1.38073 5.63764 1.45912 5.60071 1.54085 5.60071H19.6612C19.743 5.60071 19.8213 5.63764 19.8791 5.70339C19.9369 5.76913 19.9694 5.85829 19.9694 5.95127V18.431Z" fill="#FFCC01"/>
</svg>
