<svg id="圖層_1" data-name="圖層 1" xmlns="http://www.w3.org/2000/svg" viewBox="0 0 50 50"><defs></defs><path class="cls-1" d="M34,18.49H26.62l3.84-2.68a.68.68,0,0,0,.25-.41.67.67,0,0,0-.1-.48.7.7,0,0,0-.41-.26.61.61,0,0,0-.47.1l-5.16,3.59-5.13-3.59a.61.61,0,0,0-.47-.1.67.67,0,0,0-.41.26.68.68,0,0,0-.11.48.65.65,0,0,0,.26.41l3.83,2.68H15.17a1.6,1.6,0,0,0-1.6,1.6V31.51a1.6,1.6,0,0,0,1.6,1.6h1.22V34a.64.64,0,0,0,1.28,0v-.9H31.74V34a.63.63,0,0,0,.18.45.66.66,0,0,0,.46.19A.65.65,0,0,0,33,34v-.9h1a1.59,1.59,0,0,0,1.59-1.6V20.09A1.59,1.59,0,0,0,34,18.49Zm.32,13a.34.34,0,0,1-.32.32H15.17a.34.34,0,0,1-.32-.32V20.09a.34.34,0,0,1,.1-.23.31.31,0,0,1,.22-.09H34a.31.31,0,0,1,.22.09.34.34,0,0,1,.1.23Z"/></svg>