<svg width="23" height="29" viewBox="0 0 23 29" fill="none" xmlns="http://www.w3.org/2000/svg">
<path d="M3.90625 28.1924H19.0938C20.377 28.1924 21.3438 27.8628 21.9941 27.2036C22.6445 26.5532 22.9697 25.5996 22.9697 24.3428V10.856C22.9697 9.59033 22.6445 8.63232 21.9941 7.98193C21.3438 7.33154 20.377 7.00635 19.0938 7.00635H15.3232V8.62793H19.0542C19.7837 8.62793 20.3462 8.82568 20.7417 9.22119C21.146 9.60791 21.3481 10.1836 21.3481 10.9482V24.2505C21.3481 25.0151 21.146 25.5908 20.7417 25.9775C20.3462 26.373 19.7837 26.5708 19.0542 26.5708H3.9458C3.19873 26.5708 2.62744 26.373 2.23193 25.9775C1.84521 25.5908 1.65186 25.0151 1.65186 24.2505V10.9482C1.65186 10.1836 1.84521 9.60791 2.23193 9.22119C2.62744 8.82568 3.19873 8.62793 3.9458 8.62793H7.68994V7.00635H3.90625C2.62305 7.00635 1.65625 7.33154 1.00586 7.98193C0.355469 8.62354 0.0302734 9.58154 0.0302734 10.856V24.3428C0.0302734 25.6172 0.355469 26.5752 1.00586 27.2168C1.65625 27.8672 2.62305 28.1924 3.90625 28.1924ZM11.5 19.7021C11.6055 19.7021 11.7021 19.6846 11.79 19.6494C11.8867 19.6143 11.9834 19.5439 12.0801 19.4385L16.7207 14.8901C16.8789 14.7407 16.958 14.5693 16.958 14.376C16.958 14.165 16.8877 13.9937 16.7471 13.8618C16.6064 13.7212 16.4307 13.6509 16.2197 13.6509C16 13.6509 15.8154 13.7344 15.666 13.9014L13.4248 16.2349L12.2515 17.4478L12.3042 15.5229V0.915527C12.3042 0.70459 12.2251 0.52002 12.0669 0.361816C11.9087 0.203613 11.7197 0.124512 11.5 0.124512C11.2803 0.124512 11.0913 0.203613 10.9331 0.361816C10.7749 0.52002 10.6958 0.70459 10.6958 0.915527V15.5229L10.7617 17.4478L9.56201 16.2349L7.3208 13.9014C7.18018 13.7344 6.99561 13.6509 6.76709 13.6509C6.55615 13.6509 6.38037 13.7212 6.23975 13.8618C6.10791 13.9937 6.04199 14.165 6.04199 14.376C6.04199 14.5693 6.1167 14.7407 6.26611 14.8901L10.9199 19.4385C11.0166 19.5439 11.1089 19.6143 11.1968 19.6494C11.2935 19.6846 11.3945 19.7021 11.5 19.7021Z" fill="#003366"/>
</svg>
