<svg width="16" height="16" viewBox="0 0 16 16" fill="none" xmlns="http://www.w3.org/2000/svg">
<g clip-path="url(#clip0_2882_13935)">
<path d="M8 16C12.4183 16 16 12.4183 16 8C16 3.58172 12.4183 0 8 0C3.58172 0 0 3.58172 0 8C0 12.4183 3.58172 16 8 16Z" fill="white" fill-opacity="0.746193"/>
<path d="M0.322273 5.77243H4.73018L4.80198 0.677521C3.72759 1.14665 2.76943 1.84618 1.99531 2.7266C1.2212 3.60703 0.650042 4.64683 0.322273 5.77243Z" fill="#008000"/>
<path d="M4.58463 15.2234L4.61239 10.4059L0.369347 10.3741C0.698617 11.4298 1.24321 12.4058 1.96874 13.2405C2.69427 14.0752 3.58498 14.7504 4.58463 15.2234Z" fill="#008000"/>
<path d="M11.2486 0.695984V5.81172H15.6925C15.3712 4.68576 14.8068 3.64403 14.0389 2.76009C13.2711 1.87615 12.3185 1.17153 11.2486 0.695984Z" fill="#008000"/>
<path d="M15.6625 10.2866L11.2878 10.2489V15.2824C12.3322 14.8115 13.2633 14.1218 14.018 13.2599C14.7728 12.398 15.3336 11.384 15.6625 10.2866Z" fill="#008000"/>
<path d="M7.10176 14.0214C7.01533 13.935 6.96015 13.783 6.86769 13.3766C6.82144 13.1734 6.76289 12.9671 6.73756 12.9181C6.66803 12.7836 6.48306 12.5946 6.15302 12.3206C5.67262 11.9219 5.59721 11.7902 5.42639 11.0522C5.2881 10.4547 5.22434 10.2796 5.04479 10.0043C4.8674 9.73225 4.86407 9.65243 5.01594 9.31303C5.16379 8.98263 5.17503 8.90237 5.1205 8.56642C5.02355 7.96915 5.12867 7.65036 5.78103 6.56321C5.95752 6.2691 6.20169 5.81385 6.32364 5.55153C6.6779 4.78951 6.76589 4.64919 7.13031 4.26525C7.41109 3.96943 7.47901 3.86739 7.74608 3.34028C7.86691 3.10181 8.00452 2.86008 8.05188 2.8031C8.18509 2.64283 8.40624 2.50581 8.88412 2.28748C9.12554 2.17718 9.4052 2.03308 9.50559 1.96725C9.66092 1.86538 9.70476 1.84967 9.7999 1.86177C10.0396 1.89223 10.4807 2.1709 10.8371 2.51691C10.9892 2.66463 11.0033 2.68895 11.0033 2.80402C11.0033 2.89821 10.971 2.98899 10.8745 3.16597C10.7079 3.47159 10.6913 3.55103 10.6563 4.20744C10.6071 5.13077 10.5526 5.3509 10.2667 5.7825C10.1665 5.93368 10.0702 6.1094 10.0527 6.173C10.0352 6.23659 10.0208 6.45971 10.0207 6.66883C10.0205 7.11694 9.9336 7.68382 9.76114 8.36213C9.42614 9.67972 8.99275 10.6134 8.37556 11.347C8.03757 11.7488 7.86635 12.0206 7.7771 12.2971C7.712 12.4988 7.69801 12.608 7.67847 13.0669C7.66552 13.3711 7.63912 13.6515 7.61724 13.7173C7.56313 13.8799 7.3592 14.0786 7.24638 14.0786C7.19778 14.0786 7.1335 14.0532 7.10176 14.0214Z" fill="#008000"/>
</g>
<defs>
<clipPath id="clip0_2882_13935">
<rect width="16" height="16" fill="white"/>
</clipPath>
</defs>
</svg>
