<svg width="16" height="16" viewBox="0 0 16 16" fill="none" xmlns="http://www.w3.org/2000/svg">
<g clip-path="url(#clip0_2882_13930)">
<path d="M8 16C12.4183 16 16 12.4183 16 8C16 3.58172 12.4183 0 8 0C3.58172 0 0 3.58172 0 8C0 12.4183 3.58172 16 8 16Z" fill="#0000AA"/>
<path d="M8 16.0001L4 1.07192L14.9282 12.0001L0 8.00012L14.9282 4.00012L4 14.9283L8 0.00012207L12 14.9283L1.0718 4.00012L16 8.00012L1.0718 12.0001L12 1.07192L8 16.0001Z" fill="white"/>
<path d="M8 12.5333C10.5037 12.5333 12.5333 10.5037 12.5333 8.00001C12.5333 5.49632 10.5037 3.46667 8 3.46667C5.49631 3.46667 3.46667 5.49632 3.46667 8.00001C3.46667 10.5037 5.49631 12.5333 8 12.5333Z" fill="#0000AA"/>
<path d="M8 12C10.2091 12 12 10.2091 12 8C12 5.79086 10.2091 4 8 4C5.79086 4 4 5.79086 4 8C4 10.2091 5.79086 12 8 12Z" fill="white"/>
</g>
<defs>
<clipPath id="clip0_2882_13930">
<rect width="16" height="16" fill="white"/>
</clipPath>
</defs>
</svg>
